<?xml version="1.0" encoding="UTF-8"?>
<svg id="uuid-d2eed25a-726a-4065-ba5b-a5ba00c5fdea" data-name="Capa 1" xmlns="http://www.w3.org/2000/svg" viewBox="0 0 424.47 310.85">
  <path d="M173.02,44.1v30.93c0,4.62-3.74,8.36-8.36,8.36h-19.01c-4.62,0-8.36,3.74-8.36,8.36v19.01c0,4.62-3.74,8.36-8.36,8.36h-30.93c-4.62,0-8.36-3.74-8.36-8.36v-19.01c0-4.62-3.74-8.36-8.36-8.36h-19.01c-4.62,0-8.36-3.74-8.36-8.36v-30.93c0-4.62,3.74-8.36,8.36-8.36h19.01c4.62,0,8.36-3.74,8.36-8.36V8.36C89.62,3.74,93.37,0,97.99,0h30.93c4.62,0,8.36,3.74,8.36,8.36V27.38c0,4.62,3.74,8.36,8.36,8.36h19.01c4.62,0,8.36,3.74,8.36,8.36Z" style="fill: #fff;"/>
  <path d="M342.01,6.51l21.87,21.87c3.27,3.27,3.27,8.56,0,11.83l-13.44,13.44c-3.27,3.27-3.27,8.56,0,11.83l13.44,13.44c3.27,3.27,3.27,8.56,0,11.83l-21.87,21.87c-3.27,3.27-8.56,3.27-11.83,0l-13.44-13.44c-3.27-3.27-8.56-3.27-11.83,0l-13.44,13.44c-3.27,3.27-8.56,3.27-11.83,0l-21.87-21.87c-3.27-3.27-3.27-8.56,0-11.83l13.44-13.44c3.27-3.27,3.27-8.56,0-11.83l-13.44-13.44c-3.27-3.27-3.27-8.56,0-11.83l21.87-21.87c3.27-3.27,8.56-3.27,11.83,0l13.44,13.44c3.27,3.27,8.56,3.27,11.83,0l13.44-13.44c3.27-3.27,8.56-3.27,11.83,0Z" style="fill: #fff;"/>
  <path d="M212.23,310.85c-59.76,0-107.83-10.15-142.86-30.18C30.22,258.3,6.94,222.83,.17,175.27c-.69-4.82,.69-9.5,3.88-13.17,3.17-3.65,7.58-5.67,12.42-5.67H408c4.84,0,9.25,2.01,12.42,5.67,3.19,3.67,4.56,8.35,3.88,13.17-6.76,47.56-30.05,83.02-69.2,105.4-35.03,20.02-83.1,30.18-142.86,30.18Z" style="fill: #606060;"/>
  <path d="M390.3,175.27c-.02,.15-.04,.3-.05,.45-2.86,23.66-20.08,41.09-40.15,41.09H137.42c-2.47,0-4.84-1-6.56-2.77l-4.32-10.52c-.73-1.78-2.39-3.09-4.32-3.16h-.08c-1.91-.04-3.63,1.16-4.46,2.88l-5.42,11.15c-1.69,1.56-3.9,2.42-6.2,2.42h-31.7c-20.07,0-37.29-17.43-40.15-41.09-.02-.15-.04-.3-.05-.45-.58-4.82,.58-9.5,3.26-13.17,2.66-3.66,6.37-5.67,10.43-5.67H376.62c4.07,0,7.77,2.01,10.43,5.67,2.68,3.67,3.83,8.35,3.26,13.17Z" style="fill: #fff;"/>
  <path d="M320.58,295.85c-3.92,1.3-7.94,2.51-12.08,3.64-18.73,5.14-39.66,8.54-62.65,10.19-10.75,.78-21.96,1.16-33.62,1.16s-22.88-.38-33.63-1.16c-22.99-1.64-43.91-5.05-62.65-10.19-4.13-1.14-8.15-2.35-12.08-3.64-24.75-8.21-20.07-45.25,5.98-46.49,.55-.03,1.1-.04,1.65-.04h201.44c.55,0,1.11,0,1.66,.04,26.05,1.25,30.72,38.28,5.97,46.49Z" style="fill: #fff;"/>
</svg>